<!DOCTYPE svg PUBLIC "-//W3C//DTD SVG 1.1//EN" "http://www.w3.org/Graphics/SVG/1.1/DTD/svg11.dtd">
<!-- Uploaded to: SVG Repo, www.svgrepo.com, Transformed by: SVG Repo Mixer Tools -->
<svg width="175px" height="175px" viewBox="-12 -12 48.00 48.00" fill="none" xmlns="http://www.w3.org/2000/svg">
<g id="SVGRepo_bgCarrier" stroke-width="0">
<rect x="-12" y="-12" width="48.00" height="48.00" rx="24" fill="#EFF0FF" strokewidth="0"/>
</g>
<g id="SVGRepo_tracerCarrier" stroke-linecap="round" stroke-linejoin="round"/>
<g id="SVGRepo_iconCarrier"> <path d="M1 21V3C1 1.89543 1.89543 1 3 1H21C22.1046 1 23 1.89543 23 3V21C23 22.1046 22.1046 23 21 23H3C1.89543 23 1 22.1046 1 21Z" stroke="#05297A" stroke-width="1.5"/> <path d="M15 7L17 7H19" stroke="#05297A" stroke-width="1.5" stroke-linecap="round" stroke-linejoin="round"/> <path d="M15 15.5H17L19 15.5" stroke="#05297A" stroke-width="1.5" stroke-linecap="round" stroke-linejoin="round"/> <path d="M15 18.5H17H19" stroke="#05297A" stroke-width="1.5" stroke-linecap="round" stroke-linejoin="round"/> <path d="M5 7H7M9 7H7M7 7V5M7 7V9" stroke="#05297A" stroke-width="1.5" stroke-linecap="round" stroke-linejoin="round"/> <path d="M5.58609 18.4142L7.0003 17M8.41452 15.5858L7.0003 17M7.0003 17L5.58609 15.5858M7.0003 17L8.41452 18.4142" stroke="#05297A" stroke-width="1.5" stroke-linecap="round" stroke-linejoin="round"/> </g>
</svg>